<?xml version="1.0" encoding="UTF-8"?>
<!-- Generator: Adobe Illustrator 28.0.0, SVG Export Plug-In . SVG Version: 6.00 Build 0)  -->
<svg xmlns="http://www.w3.org/2000/svg" xmlns:xlink="http://www.w3.org/1999/xlink" version="1.1" id="Layer_1" x="0px" y="0px" viewBox="0 0 229.95 63.07" style="enable-background:new 0 0 229.95 63.07;" xml:space="preserve">
<style type="text/css">
	.st0{fill:#231F20;}
	.st1{fill:#0CA0C1;}
	.st2{fill:#0098CC;}
	.st3{fill:#0099CC;}
</style>
<g>
	<g>
		<rect x="13.02" y="22.25" class="st3" width="5.51" height="5.51"></rect>
		
			<rect x="26.18" y="22.16" transform="matrix(0.7071 -0.7071 0.7071 0.7071 -18.15 30.2811)" class="st3" width="2.59" height="29.78"></rect>
		<rect x="36.13" y="45.74" class="st3" width="5.51" height="5.51"></rect>
		<path class="st0" d="M34.33,38.28l-8.4-8.48l4.62-9.41l20.1-8.09L38.55,24.45c0,0-2.34-1.3-3.87,1.19c0,0-1,2.57,1.65,3.87    c0,0.08,2.04,0.69,3.18-0.89c0,0.08,0.91-1.13,0.32-3.03c0-0.15,12.09-11.98,12.09-11.98l-7.97,19.73L34.33,38.28z"></path>
		<path class="st0" d="M20.41,35.45l8.13,8.2c0.49,0.49,0.48,1.28-0.01,1.77l-3.88,3.85c-0.49,0.49-1.28,0.48-1.77-0.01l-8.13-8.2    c-0.49-0.49-0.48-1.28,0.01-1.77l3.88-3.85C19.13,34.96,19.92,34.96,20.41,35.45z"></path>
		
			<ellipse transform="matrix(4.536676e-03 -1 1 4.536676e-03 10.292 64.0809)" class="st0" cx="37.33" cy="26.87" rx="1.59" ry="1.63"></ellipse>
	</g>
	<polygon class="st0" points="64.63,21.48 67.64,21.48 67.64,39.49 75.14,39.49 75.14,42.49 64.63,42.49  "></polygon>
	<polygon class="st0" points="87.15,21.48 87.15,24.48 84.14,24.48 84.14,39.49 87.15,39.49 87.15,42.49 78.14,42.49 78.14,39.49    81.14,39.49 81.14,24.48 78.14,24.48 78.14,21.48  "></polygon>
	<polygon class="st0" points="89.99,42.49 89.99,21.43 91.49,21.43 99.01,33.47 99.01,21.43 102.02,21.43 102.02,42.49    100.52,42.49 93,30.46 93,42.49  "></polygon>
	<polygon class="st0" points="115.55,21.48 115.55,24.48 108.05,24.48 108.05,30.49 114.05,30.49 114.05,33.49 108.05,33.49    108.05,39.49 115.55,39.49 115.55,42.49 105.05,42.49 105.05,21.48  "></polygon>
	<rect x="61.05" y="30.32" class="st0" width="53.82" height="3.69"></rect>
	<g>
		<path class="st0" d="M135.02,32.05c-0.08,0.31-0.16,0.58-0.24,0.81s-0.16,0.45-0.25,0.68c-0.09,0.23-0.2,0.48-0.31,0.75    c-0.12,0.27-0.25,0.6-0.42,0.97s-0.29,0.68-0.38,0.9c-0.09,0.22-0.18,0.4-0.27,0.53c-0.08,0.13-0.16,0.25-0.24,0.37    c-0.07,0.12-0.16,0.25-0.27,0.39l3.53,5.04h-4.19l-1.6-2.28c-1.62,1.69-3.34,2.53-5.15,2.53c-0.75,0-1.45-0.14-2.1-0.41    c-0.65-0.27-1.21-0.65-1.69-1.14s-0.85-1.06-1.14-1.72c-0.28-0.66-0.42-1.37-0.42-2.12c0-0.55,0.07-1.09,0.22-1.6    c0.15-0.51,0.39-1.02,0.72-1.52c0.33-0.5,0.77-1.02,1.29-1.56c0.53-0.54,1.18-1.12,1.95-1.75c-1.32-1.75-1.98-3.41-1.98-4.98    c0-0.61,0.12-1.18,0.38-1.7s0.59-0.99,1.02-1.37c0.43-0.39,0.93-0.7,1.51-0.93c0.58-0.23,1.21-0.35,1.88-0.35    c1.44,0,2.6,0.39,3.46,1.18c0.86,0.79,1.29,1.81,1.29,3.08c0,0.71-0.14,1.37-0.41,1.98c-0.27,0.61-0.74,1.29-1.41,2.06    c-0.32,0.36-0.58,0.62-0.75,0.8s-0.41,0.39-0.71,0.64l2.24,3.16c0.4-0.61,0.77-1.42,1.13-2.43H135.02z M123.85,35.43    c-0.37,0.57-0.55,1.16-0.55,1.77c0,0.67,0.22,1.24,0.66,1.7c0.44,0.46,0.98,0.69,1.63,0.69c0.95,0,1.97-0.67,3.06-2.01l-2.79-4.19    C124.88,34.18,124.21,34.86,123.85,35.43z M126.76,28.7l0.72-0.79c0.56-0.57,0.85-1.24,0.85-2.01c0-0.42-0.14-0.76-0.41-1.03    c-0.27-0.27-0.63-0.4-1.07-0.4c-0.46,0-0.83,0.14-1.11,0.42c-0.28,0.28-0.42,0.65-0.42,1.11c0,0.36,0.09,0.73,0.27,1.13    c0.18,0.4,0.53,0.96,1.03,1.7L126.76,28.7z"></path>
	</g>
	<path class="st3" d="M150.62,24.83c-2.03-2.05-4.47-3.09-7.32-3.09h-2.95v21.04h2.95c2.85,0,5.29-1.03,7.32-3.08   c2.01-2.06,3.02-4.54,3.02-7.44C153.65,29.36,152.64,26.87,150.62,24.83z M148.52,37.57c-1.44,1.47-3.18,2.2-5.22,2.2V24.75   c2.04,0,3.78,0.73,5.22,2.2c1.44,1.47,2.17,3.24,2.17,5.32C150.69,34.33,149.97,36.11,148.52,37.57z"></path>
	<polygon class="st3" points="166.94,21.74 166.94,24.75 159.55,24.75 159.55,30.76 165.46,30.76 165.46,33.76 159.55,33.76    159.55,39.77 166.94,39.77 166.94,42.78 156.6,42.78 156.6,21.74  "></polygon>
	<path class="st3" d="M175.76,21.74h4.43v3h-4.43c-0.82,0-1.51,0.29-2.09,0.88s-0.86,1.29-0.86,2.13c0,1,1.23,2.25,3.69,3.76   c2.46,1.5,3.69,3.26,3.69,5.26c0,1.66-0.58,3.08-1.73,4.25c-1.15,1.17-2.55,1.76-4.18,1.76h-4.43v-3h4.43   c0.82,0,1.51-0.29,2.09-0.88c0.58-0.59,0.86-1.29,0.86-2.13c0-1-1.23-2.25-3.69-3.76c-2.46-1.5-3.69-3.26-3.69-5.26   c0-1.66,0.58-3.08,1.73-4.25C172.73,22.33,174.13,21.74,175.76,21.74z"></path>
	<polygon class="st3" points="192.03,21.74 192.03,24.75 189.08,24.75 189.08,39.77 192.03,39.77 192.03,42.78 183.17,42.78    183.17,39.77 186.12,39.77 186.12,24.75 183.17,24.75 183.17,21.74  "></polygon>
	<polygon class="st3" points="208.33,42.78 208.33,21.74 209.81,21.74 217.19,33.76 217.19,21.74 220.15,21.74 220.15,42.78    218.67,42.78 211.28,30.76 211.28,42.78  "></polygon>
	<path class="st3" d="M202.4,21.79h2.96v3h-2.96c-2.04,0-3.78,0.73-5.22,2.2c-1.44,1.47-2.16,3.24-2.16,5.31s0.72,3.84,2.16,5.31   c1.44,1.47,3.18,2.2,5.22,2.2V30.8h2.96v12.02h-2.96c-2.86,0-5.29-1.03-7.31-3.08c-2.02-2.05-3.03-4.53-3.03-7.44   c0-2.9,1.01-5.38,3.03-7.44C197.1,22.81,199.54,21.79,202.4,21.79z"></path>
	<rect x="199.47" y="30.64" class="st3" width="5.85" height="2.88"></rect>
</g>
</svg>
